<?xml version="1.0" encoding="UTF-8" standalone="no"?>
<svg
   version="1.1"
   width="256px"
   height="256px"
   id="svg475"
   viewBox="-31.1 -60.1 380 380"
   xmlns:xlink="http://www.w3.org/1999/xlink"
   xmlns="http://www.w3.org/2000/svg"
   xmlns:svg="http://www.w3.org/2000/svg">
  <defs
     id="defs7" />
     
  <rect x="-31.1" y="-60.1" width="380" height="380" fill="#ffffff" id="background-rect" />
  <path
     d="m 0.42690107,234.123 c 0.76390003,-3.8299 2.03890003,-4.809 5.58390003,-3.8299 4.0280999,1.059 8.0699999,1.6291 12.3088999,1.6291 6.6492,0 9.2872,-1.1401 9.9372,-4.4011 0.4708,-2.3641 -0.599,-3.668 -5.317,-6.6841 l -9.4201,-6.114 c -4.9359999,-3.1779 -6.8518999,-7.7429 -5.6658999,-13.6928 1.8199,-9.1292 8.5469999,-13.6942 22.0949999,-13.6942 3.7408,0 7.1509,0.4082 10.131,1.304 3.7769,1.0601 4.4969,2.0381 3.7658,5.707 l -0.163,0.8141 c -0.779,3.9129 -1.9389,4.7279 -5.635,3.668 -2.73,-0.8969 -6.0559,-1.3039 -10.129,-1.3039 -5.652,0 -8.0739,0.896 -8.659,3.831 -0.3898,1.9559 0.3951,3.0158 3.564,5.0539 l 9.786,6.357 c 6.1861,3.9951 8.4972,7.8259 7.117,14.754 -1.9009,9.5369 -8.9759,14.5911 -23.605,14.5911 -4.5708,0 -8.7119999,-0.489 -12.2399999,-1.5492 -3.69580003,-1.059 -4.34800003,-1.957 -3.61700003,-5.6239 z"
     style="fill:#161616;fill-rule:evenodd"
     id="path57" />
  <path
     d="m 58.511001,216.0286 h 16.3738 l 0.2441,-1.224 c 0.828,-4.1559 -1.5089,-6.1928 -6.994,-6.1928 -5.4031,0 -8.5521,2.0369 -9.3801,6.1928 z m 25.6859,4.157 c -1.1469,3.6672 -2.3899,4.4822 -6.296,4.4822 h -21.1119 l -0.2441,1.2228 c -0.845,4.2401 2.0069,6.196 9.6531,6.196 3.0759,0 6.482,-0.4079 10.285,-1.1418 3.7199,-0.733 4.3888,0.0819 3.6249,3.9129 l -0.178,0.8961 c -0.7149,3.5869 -1.6251,4.4019 -5.4621,5.2979 -2.8888,0.7339 -6.2779,1.061 -10.351,1.061 -14.8779,0 -20.6198,-5.3801 -18.1349,-17.852 l 1.3011,-6.5211 c 2.4358,-12.227 10.137,-18.3399 23.0199,-18.3399 12.1351,0 17.0331,5.8689 14.6931,17.606 -0.2282,1.1421 -0.5222,2.2011 -0.7991,3.1799 z"
     style="fill:#161616;fill-rule:evenodd"
     id="path59" />
  <path
     d="m 98.587801,236.5687 c -0.731,3.6681 -1.8241,4.565 -5.565,4.565 h -1.578 c -3.74,0 -4.4751,-0.8969 -3.7451,-4.565 l 4.1269,-20.7031 c 2.145,-10.76 9.681199,-16.4659 22.232099,-16.4659 12.966,0 17.7109,5.3799 15.5022,16.4659 l -4.1273,20.7031 c -0.7299,3.6681 -1.8238,4.565 -5.5638,4.565 h -1.5792 c -3.7409,0 -4.4759,-0.8969 -3.7449,-4.565 l 4.127,-20.7031 c 0.9091,-4.5649 -0.2129,-6.44 -6.6121,-6.44 -6.4009,0 -8.4368,1.8751 -9.3458,6.44 z"
     style="fill:#161616;fill-rule:evenodd"
     id="path61" />
  <path
     d="m 135.2636,206.0025 c 0.6491,-3.2599 1.675,-4.239 5.0471,-4.8909 l 3.5549,-0.7331 2.2802,-6.4408 c 1.082,-3.341 2.2408,-4.1562 5.8158,-4.1562 h 0.4981 c 3.5739,0 4.176,0.7342 3.477,4.2381 l -1.2671,6.3589 h 9.4762 c 2.56,0 4.2449,2.054 3.744,4.5641 l -0.1792,0.896 c -0.5289,2.6541 -2.859,4.5649 -5.5649,4.5649 h -9.474 l -3.217,16.1402 c -0.7311,3.6678 0.657,5.461 4.1479,5.461 2.2442,0 4.1882,-0.1642 5.9162,-0.489 3.8699,-0.652 4.6188,-0.2452 3.905,3.3418 l -0.1791,0.896 c -0.7311,3.6692 -2.005,5.0542 -5.7249,5.7881 -1.478,0.3259 -3.5062,0.4889 -5.915,0.4889 -10.7221,0 -15.0021,-5.216 -12.9391,-15.569 l 3.2009,-16.058 h -3.3279 c -2.285,0 -3.7879,-1.834 -3.34,-4.0748 z"
     style="fill:#161616;fill-rule:evenodd"
     id="path63" />
  <path
     d="m 175.4512,204.9429 c 0.7322,-3.6678 1.8241,-4.5649 5.5641,-4.5649 h 1.4959 c 3.7411,0 4.4762,0.8971 3.744,4.5649 l -6.3029,31.6261 c -0.731,3.6681 -1.8229,4.5649 -5.5641,4.5649 h -1.4958 c -3.7412,0 -4.4751,-0.8968 -3.744,-4.5649 z"
     style="fill:#161616;fill-rule:evenodd"
     id="path65" />
  <path
     d="m 180.5227,183.668 c 3.0801,-2.5271 7.0702,-2.5271 9.1431,0 2.0719,2.5268 1.2929,6.4389 -1.7881,8.966 -3.0801,2.5279 -7.0699,2.5279 -9.142,0 -2.073,-2.5271 -1.2929,-6.4392 1.787,-8.966 z"
     style="fill:#00bfdb;fill-rule:evenodd"
     id="path67" />
  <path
     d="m 192.1118,206.0025 c 0.633,-3.1799 1.6589,-4.157 5.0468,-4.8909 l 3.555,-0.7331 0.665,-3.342 c 2.2762,-11.4129 8.9212,-15.569 19.146,-15.569 1.3292,0 2.7261,0.081 4.1891,0.244 3.5759,0.4071 4.297,1.7932 3.566,5.4621 l -0.163,0.8141 c -0.7141,3.5859 -1.5599,4.0768 -5.385,3.6678 -0.9811,-0.0819 -2.128,-0.1619 -3.3761,-0.1619 -4.0719,0 -6.3759,1.5489 -6.9928,4.6449 l -0.845,4.24 h 8.644 c 3.7409,0 4.4759,0.8961 3.7448,4.5641 l -0.178,0.896 c -0.7319,3.6681 -1.8249,4.5649 -5.5649,4.5649 h -8.644 l -5.2149,26.1652 c -0.7311,3.6678 -1.8241,4.565 -5.5641,4.565 h -1.497 c -3.74,0 -4.4751,-0.8972 -3.744,-4.565 l 5.2149,-26.1652 h -3.3279 c -2.285,0 -3.7879,-1.834 -3.3401,-4.0748 z"
     style="fill:#161616;fill-rule:evenodd"
     id="path69" />
  <path
     d="m 242.7409,229.4776 c 0.08,2.935 0.8138,3.424 3.225,3.424 1.5789,0 2.5548,-0.7339 3.7578,-3.424 l 10.3902,-24.6161 c 1.6299,-3.5869 2.806,-4.483 6.5469,-4.483 h 1.828 c 3.7409,0 4.227,0.8961 2.7629,4.483 l -15.707,36.2722 c -5.148,12.0639 -12.471,17.1178 -21.625,18.422 -4.0189,0.5709 -4.837,0.0808 -4.8208,-3.7502 v -0.4068 c -0.216,-3.505 0.6279,-4.401 4.1819,-5.1352 5.1149,-1.0599 8.7591,-3.913 10.749,-8.477 -0.714,0.244 -1.8941,0.3262 -3.473,0.3262 -6.899,0 -8.261,-3.5872 -8.6131,-11.412 l -0.917,-25.8392 c -0.033,-3.5869 0.811,-4.483 4.551,-4.483 h 1.8281 c 3.74,0 4.559,0.8961 4.758,4.483 z"
     style="fill:#161616;fill-rule:evenodd"
     id="path71" />
  <path
     d="m 281.7277,224.0164 c -1.1531,5.788 0.054,8.0699 7.2851,8.0699 7.0639,0 9.5479,-2.446 10.6679,-8.0699 l 1.3,-6.5211 c 1.1211,-5.624 -0.387,-8.0689 -7.4509,-8.0689 -7.0651,0 -9.381,2.4449 -10.5032,8.0689 z m 28.7099,0.2449 c -2.4208,12.1439 -11.4548,17.8509 -23.3399,17.8509 -13.216,0 -18.6789,-5.9508 -16.306,-17.8509 l 1.3,-6.522 c 2.3391,-11.7371 9.7219,-18.339 21.109,-18.339 5.2362,0 8.7511,1.548 10.4601,4.646 l 3.0708,-15.406 c 0.731,-3.6681 1.8241,-4.5641 5.5653,-4.5641 h 1.4958 c 3.74,0 4.475,0.896 3.7451,4.5641 z"
     style="fill:#161616;fill-rule:evenodd"
     id="path73" />
  <defs
     id="defs81">
    <linearGradient
       id="grad2">
      <stop
         offset="0%"
         stop-color="#801bea"
         stop-opacity="1.0000"
         id="stop75" />
      <stop
         offset="100%"
         stop-color="#00bfdb"
         stop-opacity="1.0000"
         id="stop77" />
    </linearGradient>
    <linearGradient
       xlink:href="#grad2"
       id="grad3"
       x1="1721.3405"
       y1="-15.337234"
       x2="1721.3405"
       y2="57.471771"
       gradientTransform="matrix(1.1178742,0,0,0.89455505,-1798.7294,84.963097)"
       gradientUnits="userSpaceOnUse" />
  </defs>
  <path
     d="m 197.509,72.001997 -12.695,11.7011 c -2.4749,2.281 -2.4239,5.9559 0.114,8.168 L 198.4711,103.672 c 1.1939,1.0412 3.005,0.9162 4.045,-0.278 l 3.6819,-4.224803 c 1.0412,-1.1942 0.9162,-3.005 -0.278,-4.045 l -7.7689,-6.77 c -0.453,-0.3952 -0.4621,-1.097 -0.02,-1.5052 l 7.0628,-6.5078 c 1.1642,-1.074 1.2382,-2.8882 0.165,-4.0521 l -3.799,-4.121 c -0.5649,-0.614 -1.336,-0.925 -2.109,-0.925 -0.695,0 -1.3909,0.2509 -1.942,0.7589 z m -71.9739,15.5432 c -0.3679,5.5749 3.854,10.093 9.4269,10.093 5.5752,0 10.3921,-4.5181 10.7592,-10.093 0.3668,-5.5741 -3.854,-10.0922 -9.4281,-10.0922 -5.574,0 -10.3901,4.5181 -10.758,10.0922 z m 49.0371,31.339003 c -6.9262,6.8859 -17.763,8.1428 -26.0841,3.026 -1.2359,-0.7611 -2.8449,-0.4791 -3.746,0.659 l -3.5011,4.4189 c -1.057,1.334 -0.72,3.282 0.7112,4.205 2.9268,1.8901 6.069,3.2541 9.3059,4.1071 11.171,2.944 23.4541,-0.2092 31.799,-8.8702 1.1829,-1.2288 1.0681,-3.204 -0.269,-4.263 l -4.4181,-3.4988 c -0.502,-0.398 -1.1318,-0.593 -1.7628,-0.593 -0.7481,0 -1.497,0.2738 -2.035,0.809 z"
     style="fill:url(#grad3)"
     id="path83" />
  <defs
     id="defs91">
    <linearGradient
       id="grad4">
      <stop
         offset="0%"
         stop-color="#801bea"
         stop-opacity="1.0000"
         id="stop85" />
      <stop
         offset="100%"
         stop-color="#00bfdb"
         stop-opacity="1.0000"
         id="stop87" />
    </linearGradient>
    <linearGradient
       xlink:href="#grad4"
       id="grad5"
       x1="1808.7452"
       y1="-87.218277"
       x2="1808.7452"
       y2="109.30461"
       gradientTransform="matrix(1.026543,0,0,0.97414327,-1798.7294,84.963097)"
       gradientUnits="userSpaceOnUse" />
  </defs>
  <path
     d="m 158.413,13.563197 c -0.3288,4.9878 2.0772,9.347 5.9321,11.7028 l -2.7579,13.8311 c -0.4062,2.0359 0.9488,3.5079 3.011,3.2709 l 4.786,-0.5499 c 1.9658,-0.2259 3.5629,-1.696 3.9498,-3.638 l 2.3621,-11.8409 c 5.3691,-1.8742 9.4541,-6.887 9.8419,-12.776 C 186.0321,6.0731966 180.36,-3.3813476e-6 172.8691,-3.3813476e-6 165.3792,-3.3813476e-6 158.9071,6.0731966 158.413,13.563197 Z m 69.6552,27.11 -119.461,13.737 c -14.689199,1.688 -28.919999,14.9649 -31.625099,29.5029 l -18.712,100.613003 c -1.228,6.601 2.2881,8.8809 7.8131,5.066 L 103.7361,163.5962 c 1.7631,-1.2172 4.9581,-2.2122 7.0999,-2.2122 h 100.9202 c 16.4438,0 32.529,-13.195 35.746,-29.321 l 11.5229,-57.770903 c 3.8781,-19.4409 -7.867,-33.876 -26.549,-33.8769 -1.431,0 -2.8999,0.0848 -4.4079,0.258 z M 72.817201,168.3201 87.980001,86.789197 c 1.944,-10.4511 12.174199,-19.9942 22.734099,-21.208 l 117.838,-13.551 c 13.1451,-1.5112 21.7819,7.869 19.1939,20.844 L 236.5001,129.253 c -2.2799,11.435 -13.6871,20.7921 -25.3479,20.7921 h -101.74 c -3.3032,0 -8.229,1.535 -10.947099,3.411 l -23.5239,16.2411 c -0.4941,0.341 -0.9281,0.5028 -1.2781,0.5028 -0.713,0 -1.0701,-0.6749 -0.8459,-1.8799 z"
     style="fill:url(#grad5)"
     id="path93" />
  <defs
     id="defs147" />
  <defs
     id="defs157" />
  <defs
     id="defs249" />
  <defs
     id="defs259" />
  <defs
     id="defs365" />
  <defs
     id="defs381" />
  <defs
     id="defs391" />
  <defs
     id="defs401" />
  <defs
     id="defs411" />
  <defs
     id="defs421" />
  <defs
     id="defs431" />
  <defs
     id="defs441" />
  <defs
     id="defs451" />
  <defs
     id="defs461" />
  <defs
     id="defs471" />
</svg>